<?xml version="1.0" encoding="utf-8"?>
<!-- Generator: Adobe Illustrator 20.1.0, SVG Export Plug-In . SVG Version: 6.00 Build 0)  -->
<svg version="1.1" id="Layer_1" xmlns="http://www.w3.org/2000/svg" xmlns:xlink="http://www.w3.org/1999/xlink" x="0px" y="0px"
	 viewBox="0 0 100 117" style="enable-background:new 0 0 100 117;" xml:space="preserve">
<style type="text/css">
	.st0{fill:#231F20;}
</style>
<path class="st0" d="M38.2,48.6c-2.7-0.5-5.4-1.3-7.9-2.3c-5.7-2.2-10.8-5.3-15.2-9.2c-4.4-3.9-8-8.6-10.6-13.9
	C2,18.1,0.4,12.5,0,6.6v0l0-0.1l0,0v0V5.8V5.3l0.5-0.1L1.2,5c0.5-0.1,0.9-0.2,1.4-0.3C3,4.6,3.5,4.5,4,4.5C5.3,4.5,6.6,4.6,7.8,5
	c1.2,0.4,2.4,1,3.4,1.8c0.9,0.7,1.8,1.6,2.5,2.6c0.6,0.8,1.1,1.8,1.5,2.8c0.2,0,0.3,0,0.5,0c0.8,0,1.7,0.2,2.4,0.4
	c0.8,0.3,1.5,0.7,2.1,1.3c0.6,0.5,1.2,1.2,1.6,2c0.4,0.7,0.8,1.6,1.1,2.5c0,0.1,0.1,0.2,0.1,0.3c0.8,0,1.4,0.2,2.1,0.5
	c0.8,0.4,1.5,0.9,2.1,1.6c0.5,0.6,0.9,1.2,1.2,1.9c0.3,0.6,0.5,1.2,0.6,1.8c0.5,0.1,1,0.2,1.5,0.4c0.7,0.3,1.3,0.7,1.8,1.3l0.2,0.2
	v0c0.2,0.2,0.4,0.5,0.5,0.7c0.8-3.2,2.6-6.1,5-8.3c3.1-2.9,7.4-4.7,12-4.7c2,0,4,0.3,5.8,1v0.2c2.8,1.1,5.2,3,6.9,5.4
	c2.5,2.8,4,6.5,4,10.6c0,4.5-1.9,8.6-4.9,11.5c-1.3,1.3-2.9,2.4-4.6,3.2c0.3,0.3,0.6,0.6,0.8,1l0.2,0l0.4-0.1l0.4,0.2
	c1,0.5,2,1,2.9,1.7c2.7-0.5,5.4-1.3,7.9-2.3c5.7-2.2,10.8-5.3,15.2-9.2c4.4-3.9,8-8.6,10.6-13.9c2.5-5.1,4.1-10.7,4.5-16.6v0l0-0.1
	l0,0v0V5.8V5.3l-0.5-0.1L98.8,5c-0.5-0.1-0.9-0.2-1.4-0.3C97,4.6,96.5,4.5,96,4.5c-1.3-0.1-2.6,0.1-3.8,0.5c-1.2,0.4-2.4,1-3.4,1.8
	c-0.9,0.7-1.8,1.6-2.5,2.6c-0.6,0.8-1.1,1.8-1.5,2.8c-0.2,0-0.3,0-0.5,0c-0.8,0-1.7,0.2-2.4,0.4c-0.8,0.3-1.5,0.7-2.1,1.3
	c-0.6,0.5-1.2,1.2-1.6,2c-0.4,0.7-0.8,1.6-1.1,2.5c0,0.1-0.1,0.2-0.1,0.3c-0.8,0-1.4,0.2-2.1,0.5c-0.8,0.4-1.5,0.9-2.1,1.6
	c-0.5,0.6-0.9,1.2-1.2,1.9c-0.3,0.6-0.5,1.2-0.6,1.8c-0.5,0.1-1,0.2-1.5,0.4c-0.7,0.3-1.3,0.7-1.8,1.3l-0.2,0.2v0
	c-0.2,0.2-0.4,0.5-0.5,0.7c-0.8-3.2-2.6-6.1-5-8.3c-3.1-2.9-7.3-4.6-12-4.7c2,0,3.9,0.3,5.7,1v0.2C54,14.5,52,14.1,50,14.1
	c-5.2,0-9.8,2.6-12.6,6.5c-1.6,1.9-2.8,4.1-3.4,6.5c-0.1,0.4-0.2,0.8-0.3,1.2l0,0c-0.2,0.9-0.2,1.8-0.2,2.8c0,4.5,1.9,8.6,4.9,11.5
	c1.3,1.3,2.8,2.4,4.5,3.2c-0.3,0.3-0.6,0.7-0.8,1l0,0l-0.4-0.1L41.2,47C40.1,47.4,39.2,48,38.2,48.6L38.2,48.6z M50,0
	c0.5,0,1,0.4,1,0.9c0,0.5-0.4,0.9-1,0.9c-0.5,0-1-0.4-1-0.9C49,0.4,49.5,0,50,0L50,0z M50,10.8c0.5,0,1,0.4,1,0.9
	c0,0.5-0.4,0.9-1,0.9c-0.5,0-1-0.4-1-0.9C49,11.2,49.5,10.8,50,10.8L50,10.8z M50,97.6c2.5,0,4.6,2,4.6,4.5c0,2.5-2.1,4.5-4.6,4.5
	c-2.5,0-4.6-2-4.6-4.5C45.4,99.6,47.5,97.6,50,97.6L50,97.6z M50,113.7c0.9,0,1.7,0.7,1.7,1.6c0,0.9-0.7,1.6-1.7,1.6
	c-0.9,0-1.7-0.7-1.7-1.6C48.3,114.5,49.1,113.7,50,113.7L50,113.7z M50,107.4c1.5,0,2.8,1.2,2.8,2.7c0,1.5-1.2,2.7-2.8,2.7
	c-1.5,0-2.8-1.2-2.8-2.7C47.2,108.6,48.5,107.4,50,107.4L50,107.4z M5.8,6.5c0,0-0.1,0-0.1,0l0,0l0,0l0,0l0,0l0,0l0,0l0,0l0,0
	c0,0-0.1,0-0.1,0l0,0l0,0l0,0l0,0l0,0l0,0h0l0,0l-0.1,0l0,0l0,0l-0.1,0l0,0l0,0l-0.1,0h0l0,0l-0.1,0h0l-0.1,0H4.4l0,0l-0.1,0l-0.1,0
	l0,0l-0.1,0l0,0L4,6.4l0,0l0,0l0,0h0l0,0c-0.4,0-0.7,0.1-1.1,0.1c-0.2,0-0.4,0.1-0.6,0.1l0,0l0,0l0,0l0,0l0,0l0,0l0,0l-0.1,0l0,0
	l0,0h0l0,0l0,0l0,0l0,0l0,0l0,0l0,0l0,0l0,0c0.3,4.1,1.2,8,2.6,11.7l0,0c0.1,0.2,0.1,0.3,0.2,0.5l0,0c0.1,0.1,0.1,0.3,0.2,0.4l0,0.1
	c0.1,0.1,0.1,0.3,0.2,0.4l0,0.1c0.1,0.1,0.1,0.3,0.2,0.4l0,0.1c0.1,0.1,0.1,0.3,0.2,0.4l0,0.1c0.1,0.1,0.1,0.2,0.2,0.4l0,0.1
	c0.1,0.1,0.1,0.2,0.2,0.4L6,21.9c0.1,0.1,0.1,0.2,0.2,0.3l0.1,0.1c0.1,0.1,0.1,0.2,0.2,0.3l0.1,0.1c0.1,0.1,0.1,0.2,0.2,0.3l0.1,0.1
	c0.1,0.1,0.1,0.2,0.2,0.3L7,23.7C7,23.8,7.1,23.9,7.1,24l0.1,0.1c0.1,0.1,0.1,0.2,0.2,0.3l0.1,0.1c0.1,0.1,0.1,0.2,0.2,0.3l0.1,0.1
	c0.1,0.1,0.1,0.2,0.2,0.3L8,25.5c0.1,0.1,0.1,0.2,0.2,0.3L8.3,26c0.1,0.1,0.1,0.2,0.2,0.3l0.1,0.1c0.1,0.1,0.1,0.2,0.2,0.3l0.1,0.2
	C8.9,26.9,8.9,27,9,27.1l0.1,0.1c0.1,0.1,0.1,0.2,0.2,0.3l0.1,0.1c0.1,0.1,0.1,0.2,0.2,0.3l0.1,0.1c0.1,0.1,0.1,0.2,0.2,0.3l0.1,0.1
	c0.1,0.1,0.2,0.2,0.2,0.3l0.1,0.1c0.1,0.1,0.2,0.2,0.2,0.3l0.1,0.1c0.1,0.1,0.2,0.2,0.2,0.3l0.1,0.1c0.1,0.1,0.2,0.2,0.2,0.3
	l0.1,0.1c0.1,0.1,0.2,0.2,0.2,0.3l0.1,0.1c0.1,0.1,0.2,0.2,0.3,0.3l0.1,0.1c0.1,0.1,0.2,0.2,0.3,0.3l0.1,0.1
	c0.1,0.1,0.2,0.2,0.3,0.3l0.1,0.1c0.1,0.1,0.2,0.2,0.3,0.3l0.1,0.1c0.1,0.1,0.2,0.2,0.3,0.3l0.1,0.1c0.1,0.1,0.2,0.2,0.3,0.3
	l0.1,0.1c0.1,0.1,0.2,0.2,0.3,0.3l0.1,0.1c0.1,0.1,0.2,0.2,0.3,0.3l0.1,0.1c0.1,0.1,0.2,0.2,0.3,0.3l0.1,0.1
	c0.1,0.1,0.2,0.2,0.3,0.3l0.1,0.1c0.1,0.1,0.2,0.2,0.3,0.3l0,0c0.1,0.1,0.2,0.2,0.3,0.3l0,0c0.1,0.1,0.2,0.2,0.3,0.3l0,0
	c0.1,0.1,0.2,0.2,0.3,0.3l0,0l0.1,0.1l0.1,0.1l0.1,0.1l0.1,0.1l0.1,0.1l0.1,0.1l0.1,0.1l0,0c0.1,0.1,0.1,0.1,0.2,0.2l0,0l0.1,0.1
	l0.2,0.1l0.1,0.1l0.1,0.1L18,37l0.1,0.1l0.1,0.1c0.1,0.1,0.2,0.1,0.2,0.2l0,0c0.1,0,0.1,0.1,0.2,0.1l0.1,0.1l0.2,0.1l0.1,0.1
	c0.1,0.1,0.2,0.1,0.2,0.2l0,0c0.1,0.1,0.2,0.1,0.3,0.2l0,0c0.1,0.1,0.2,0.1,0.2,0.2l0,0c0.1,0.1,0.2,0.1,0.2,0.2l0,0
	c0.3,0.2,0.5,0.4,0.8,0.6l0,0c4.3,3,9.2,5.3,14.5,6.8c-4.3-1.6-8.2-4.1-11.4-7.1c-5.3-5-8.9-11.6-9.8-18.9c-0.2-1.9-0.2-4.5-0.7-6.3
	l0,0l0,0l0,0l0-0.1h0c0-0.1,0-0.1-0.1-0.2v0c0,0,0-0.1,0-0.1h0c-0.7-1.9-1.8-3.6-3.3-4.8l0,0l-0.1-0.1l0,0h0l0,0L10,8.4L9.9,8.3l0,0
	L9.8,8.3l0,0l0,0L9.7,8.2l0,0l0,0L9.7,8.1l0,0l0,0L9.6,8.1l0,0c-0.9-0.7-2-1.1-3.1-1.4l0,0l0,0l-0.1,0l0,0h0l0,0l-0.1,0l-0.1,0l0,0
	l-0.1,0l0,0L6,6.6l0,0l-0.1,0l0,0L5.8,6.5L5.8,6.5L5.8,6.5z M41.3,45.9c-1-0.6-2-1.2-2.9-1.9l0,0l-0.1,0l0,0l-0.1,0l0,0l0,0l-0.1,0
	l0,0l-0.1,0l0,0l0,0l0,0l0,0l-0.1,0l0,0l0,0c-0.1-0.1-0.2-0.2-0.3-0.3l0,0l0,0l-0.1-0.1l0,0l-0.1-0.1l0,0l0,0c0,0-0.1-0.1-0.1-0.1
	l0,0c0,0-0.1-0.1-0.1-0.1l0,0l0,0c0,0-0.1-0.1-0.1-0.1l0,0l0,0c0,0-0.1-0.1-0.1-0.1l0,0c0,0-0.1-0.1-0.1-0.1l0,0
	c0,0-0.1-0.1-0.1-0.2l0,0c-1.2-1.4-2.3-2.9-3-4.6c-0.9-2-1.4-4.2-1.4-6.5l0,0v-0.1l0,0v0v0v0v0v0v0v0v0l0,0v0v0v0v0v0l0,0v0v0v0l0,0
	l0,0v0l0,0v0l0,0v0v0l0,0v0c0-0.1,0-0.2,0-0.2l0,0v0l0,0l0,0v0l0,0l0,0v0l0,0l0,0l0,0v0l0,0l0,0l0,0l0,0l0,0c0-0.2-0.1-0.4-0.1-0.5
	l0,0l0,0l0,0v0l0,0l0,0l0,0l0,0l0,0l0,0l0,0c0-0.1,0-0.1,0-0.2l0,0c-0.1-0.4-0.3-0.7-0.4-1.1c-0.2-0.4-0.4-0.7-0.7-1l0,0l0,0l0,0
	l0,0l0,0l0,0l0,0l0,0l0,0l0,0l0,0l0,0l0,0l0,0l0,0l0,0l0,0l0,0c-0.6-0.6-1.4-1-2.2-1h0h0l0,0h0l0,0h0h0h0l0,0h0h0l0,0h0h0h0l0,0h0h0
	h0h0h0h0h0h0h0c-0.1,0-0.3,0-0.4,0l0,0c0,0.1,0,0.2,0,0.3v0c0,0.1,0,0.1,0,0.2c0,0.1,0,0.2,0,0.3c0.1,2.2,0.5,4.4,1.2,6.4
	c0.8,2,1.8,3.9,3.2,5.6c2,2.5,4.6,4.6,7.6,6.1l0,0C40.4,45.5,40.9,45.7,41.3,45.9L41.3,45.9z M26.4,23.2c0,0,0-0.1-0.1-0.1l0,0
	c-0.1-0.1-0.1-0.3-0.2-0.4l0,0c0,0,0,0,0-0.1l0,0l0,0l0,0l0,0l0,0l0,0l0,0l0,0l0,0l0,0l0,0l0,0l0,0l0,0l0,0l0,0l0,0l0,0l0,0l0,0
	c0,0,0-0.1-0.1-0.1l0,0l0,0c0,0,0-0.1-0.1-0.1l0,0l0,0l0,0l0,0l0,0c-0.7-0.8-1.7-1.4-3.1-1.3h0h0l0,0l-0.1,0h0l0,0l0,0l0,0l0,0l0,0
	l0,0l0,0h0h0l0,0h0h0h0h0l0,0h0h0h0l0,0h0h0l0,0h0l0,0h0h0h0l0,0h0c-0.1,0-0.1,0-0.2,0h0l0,0h0l-0.1,0c0,0.4,0,0.7,0,1.1
	c0,0.1,0,0.1,0,0.4c0,0,0,0,0,0h0c0,0.1,0,0.2,0,0.3l0,0.1c0,0.1,0,0.1,0,0.2l0,0.1c0,0.1,0,0.2,0,0.3l0,0c0,0.1,0,0.2,0,0.3l0,0.1
	c0,0.1,0,0.1,0,0.2l0,0.1c0,0.1,0,0.1,0,0.2l0,0.1c0,0.1,0,0.2,0,0.3l0,0.1c0,0.1,0,0.1,0,0.2l0,0.1c0,0.1,0,0.1,0,0.2l0,0.1
	c0,0.1,0,0.2,0,0.3l0,0.1c0,0.1,0,0.1,0,0.2l0,0.1c0,0.1,0,0.1,0,0.2l0,0.1c0,0.1,0,0.2,0,0.3l0,0.1c0,0.1,0,0.1,0,0.2l0,0.1
	c0,0.1,0,0.1,0,0.2l0,0.1c0,0.1,0,0.1,0,0.2l0,0.1c0,0.1,0,0.1,0,0.2l0,0.1l0,0.1c0,0,0,0.1,0,0.1c0,0.1,0,0.1,0,0.2
	c0,0.1,0,0.1,0,0.2c0,0.1,0,0.1,0,0.2l0,0.1l0,0.1l0,0.1l0,0.1c0,0.1,0,0.1,0.1,0.2c0,0,0,0.1,0,0.1c0,0.1,0,0.1,0,0.2l0,0.1
	c0,0.1,0,0.1,0.1,0.2l0,0.1c0.1,0.2,0.1,0.4,0.2,0.6l0,0.1c0,0.1,0,0.1,0.1,0.2l0,0.1c0.1,0.2,0.2,0.4,0.2,0.6l0,0
	c0,0.1,0.1,0.1,0.1,0.2l0,0c0.1,0.3,0.2,0.6,0.4,0.8l0,0c0.7,1.4,1.5,2.8,2.4,4.1c3,4.2,7.4,7.5,12.4,9.4l0,0
	c0.2,0.1,0.5,0.2,0.7,0.2c-0.1,0-0.2-0.1-0.3-0.1l0,0l0,0c-0.1,0-0.1-0.1-0.2-0.1c-2.5-1.2-4.7-2.9-6.5-4.9c-0.3-0.3-0.6-0.6-0.8-1
	c-0.5-0.6-0.9-1.2-1.4-1.8c-0.9-1.4-1.6-2.8-2.2-4.4l0,0l0-0.1c-0.8-2.1-1.2-4.3-1.2-6.7l0-0.2c0-0.1,0-0.2,0-0.3
	c0-0.3-0.1-0.6-0.1-0.9l0,0v0l0,0l0,0l0,0l0,0l0,0l0-0.1l0,0l0,0l0,0l0,0c0-0.1,0-0.1,0-0.2l0,0l0,0l0,0l0,0l0,0l0,0l0,0l0,0l0,0
	c-0.1-0.6-0.3-1.1-0.5-1.6l0,0l0,0l0,0l0,0l0,0l0,0l0,0l0,0L26.4,23.2L26.4,23.2L26.4,23.2L26.4,23.2L26.4,23.2L26.4,23.2z
	 M21.3,20.1L21.3,20.1c0-0.3-0.1-0.5-0.1-0.7c0-0.2-0.1-0.3-0.1-0.4l0,0l0,0l0,0v0l0,0l0,0l0,0l0,0l0,0l0,0l0,0l0,0l0,0l0,0l0,0l0,0
	l0,0l0,0l0,0l0,0l0,0l0-0.1l0,0v0l0,0l0,0l0,0l0-0.1l0,0l0,0l0,0l0,0l0,0l0,0l0,0l0,0l0,0l0,0l0,0l0,0l0,0l0,0
	c-0.2-0.6-0.4-1.1-0.7-1.5l0,0l0,0l0,0l0,0l0,0l0,0c-0.3-0.5-0.7-0.9-1.1-1.3l0,0l0,0l0,0l0,0l0,0l0,0l0,0h0l0,0l0,0l0,0l0,0l0,0
	l0,0l0,0l0,0l0,0c-0.9-0.7-1.9-1.1-2.9-1.1h0l-0.1,0v0l-0.1,0l-0.1,0h0h0h0h0h0h0h0l0,0h0h0h0h0h0l0,0h0h0h0h0l0,0h0h0l0,0h0h0l0,0
	h0l0,0h0l0,0h0h0l0,0l0,0l0,0h0l0,0l0,0h0l0,0c-0.1,0-0.2,0-0.3,0c-0.2,0-0.4,0.1-0.6,0.1c0.1,0.3,0.1,0.6,0.1,0.9
	c0,0.4,0.1,0.8,0.1,1.2c0,0.9,0.1,1.8,0.2,2.8c0.5,4.8,2.2,9.3,4.8,13.3c3.2,4.9,7.8,9,13.2,11.7l0,0c1.6,0.7,3.2,1.3,4.9,1.8
	c-3.1-1.3-5.9-3.2-8.3-5.4c-2.1-2-3.9-4.4-5.2-7l0,0c-0.1-0.3-0.3-0.6-0.4-0.8l0,0c-0.1-0.3-0.3-0.6-0.4-0.8l0-0.1
	c0-0.1-0.1-0.1-0.1-0.2l0-0.1c-0.1-0.1-0.1-0.2-0.1-0.4l0,0c0-0.1,0-0.1-0.1-0.2l0-0.1c0-0.1,0-0.1-0.1-0.2l0-0.1
	c0-0.1-0.1-0.3-0.1-0.4v0c0-0.1,0-0.1-0.1-0.2l0-0.1l-0.1-0.2l0-0.1c0-0.1,0-0.1,0-0.2c0-0.1,0-0.1-0.1-0.2l0-0.1l0-0.1l0-0.1l0-0.1
	c0,0,0-0.1,0-0.1c0-0.1,0-0.1-0.1-0.2l0-0.2c0-0.1,0-0.1,0-0.2l0-0.1l0-0.2l0-0.1c0-0.1,0-0.1,0-0.2l0-0.1c0-0.1,0-0.2-0.1-0.2
	l0-0.1c0-0.1,0-0.1,0-0.2l0-0.1c0-0.1,0-0.1,0-0.2l0-0.1c0-0.1,0-0.2,0-0.3l0-0.1c0-0.1,0-0.1,0-0.2l0-0.1c0-0.1,0-0.2,0-0.2l0-0.1
	c0-0.1,0-0.2,0-0.3l0-0.1c0-0.1,0-0.1,0-0.2l0-0.1c0-0.1,0-0.1,0-0.2l0-0.1c0-0.1,0-0.2,0-0.3l0,0c0-0.1,0-0.2,0-0.3l0-0.1
	c0-0.1,0-0.1,0-0.2l0-0.1c0-0.1,0-0.2,0-0.3l0,0c0-0.1,0-0.2,0-0.3l0-0.1c0-0.1,0-0.1,0-0.2l0-0.1c0-0.1,0-0.2,0-0.3c0,0,0,0,0-0.1
	C21.4,21.4,21.4,20.8,21.3,20.1L21.3,20.1z M50.1,14L50.1,14L50.1,14L50.1,14L50.1,14z M94.2,6.5c0,0,0.1,0,0.1,0l0,0l0,0l0,0l0,0
	l0,0l0,0l0,0l0,0c0,0,0.1,0,0.1,0l0,0l0,0l0,0l0,0l0,0l0,0h0l0,0l0.1,0l0,0l0,0l0.1,0l0,0l0,0l0.1,0h0l0,0l0.1,0h0l0.1,0h0.1l0,0
	l0.1,0l0.1,0l0,0l0.1,0l0,0l0.1,0l0,0l0,0l0,0h0l0,0c0.4,0,0.7,0.1,1.1,0.1c0.2,0,0.4,0.1,0.6,0.1l0,0l0,0l0,0l0,0l0,0l0,0l0,0
	l0.1,0l0,0l0,0h0l0,0l0,0l0,0l0,0l0,0l0,0l0,0l0,0l0,0c-0.3,4.1-1.2,8-2.6,11.7l0,0c-0.1,0.2-0.1,0.3-0.2,0.5l0,0
	c-0.1,0.1-0.1,0.3-0.2,0.4l0,0.1c-0.1,0.1-0.1,0.3-0.2,0.4l0,0.1c-0.1,0.1-0.1,0.3-0.2,0.4l0,0.1c-0.1,0.1-0.1,0.3-0.2,0.4l0,0.1
	c-0.1,0.1-0.1,0.2-0.2,0.4l0,0.1c-0.1,0.1-0.1,0.2-0.2,0.4L94,21.9c-0.1,0.1-0.1,0.2-0.2,0.3l-0.1,0.1c-0.1,0.1-0.1,0.2-0.2,0.3
	l-0.1,0.1c-0.1,0.1-0.1,0.2-0.2,0.3l-0.1,0.1c-0.1,0.1-0.1,0.2-0.2,0.3L93,23.7c-0.1,0.1-0.1,0.2-0.2,0.3l-0.1,0.1
	c-0.1,0.1-0.1,0.2-0.2,0.3l-0.1,0.1c-0.1,0.1-0.1,0.2-0.2,0.3l-0.1,0.1c-0.1,0.1-0.1,0.2-0.2,0.3L92,25.5c-0.1,0.1-0.1,0.2-0.2,0.3
	L91.7,26c-0.1,0.1-0.1,0.2-0.2,0.3l-0.1,0.1c-0.1,0.1-0.1,0.2-0.2,0.3l-0.1,0.2c-0.1,0.1-0.1,0.2-0.2,0.3l-0.1,0.1
	c-0.1,0.1-0.1,0.2-0.2,0.3l-0.1,0.1c-0.1,0.1-0.1,0.2-0.2,0.3l-0.1,0.1c-0.1,0.1-0.1,0.2-0.2,0.3l-0.1,0.1c-0.1,0.1-0.2,0.2-0.2,0.3
	l-0.1,0.1c-0.1,0.1-0.2,0.2-0.2,0.3l-0.1,0.1c-0.1,0.1-0.2,0.2-0.2,0.3l-0.1,0.1c-0.1,0.1-0.2,0.2-0.2,0.3l-0.1,0.1
	c-0.1,0.1-0.2,0.2-0.2,0.3l-0.1,0.1c-0.1,0.1-0.2,0.2-0.3,0.3l-0.1,0.1c-0.1,0.1-0.2,0.2-0.3,0.3l-0.1,0.1c-0.1,0.1-0.2,0.2-0.3,0.3
	l-0.1,0.1c-0.1,0.1-0.2,0.2-0.3,0.3l-0.1,0.1c-0.1,0.1-0.2,0.2-0.3,0.3l-0.1,0.1c-0.1,0.1-0.2,0.2-0.3,0.3l-0.1,0.1
	c-0.1,0.1-0.2,0.2-0.3,0.3l-0.1,0.1c-0.1,0.1-0.2,0.2-0.3,0.3l-0.1,0.1c-0.1,0.1-0.2,0.2-0.3,0.3L85.4,34c-0.1,0.1-0.2,0.2-0.3,0.3
	L85,34.3c-0.1,0.1-0.2,0.2-0.3,0.3l0,0c-0.1,0.1-0.2,0.2-0.3,0.3l0,0c-0.1,0.1-0.2,0.2-0.3,0.3l0,0c-0.1,0.1-0.2,0.2-0.3,0.3l0,0
	l-0.1,0.1l-0.1,0.1L83.2,36l-0.1,0.1L83,36.2l-0.1,0.1l-0.1,0.1l0,0c-0.1,0.1-0.1,0.1-0.2,0.2l0,0l-0.1,0.1l-0.2,0.1l-0.1,0.1
	l-0.1,0.1L82,37l-0.1,0.1l-0.1,0.1c-0.1,0.1-0.2,0.1-0.2,0.2l0,0c-0.1,0-0.1,0.1-0.2,0.1l-0.1,0.1L81,37.8L81,37.9
	c-0.1,0.1-0.2,0.1-0.2,0.2l0,0c-0.1,0.1-0.2,0.1-0.3,0.2l0,0c-0.1,0.1-0.2,0.1-0.2,0.2l0,0c-0.1,0.1-0.2,0.1-0.2,0.2l0,0
	c-0.3,0.2-0.5,0.4-0.8,0.6l0,0c-4.3,3-9.2,5.3-14.5,6.8c4.3-1.6,8.2-4.1,11.4-7.1c5.3-5,8.9-11.6,9.8-18.9c0.2-1.9,0.2-4.5,0.7-6.3
	l0,0l0,0l0,0l0-0.1h0c0-0.1,0-0.1,0.1-0.2v0c0,0,0-0.1,0-0.1h0c0.7-1.9,1.8-3.6,3.3-4.8l0,0l0.1-0.1l0,0h0l0,0L90,8.4l0.1-0.1l0,0
	l0.1-0.1l0,0l0,0l0.1-0.1l0,0l0,0l0.1-0.1l0,0l0,0l0.1-0.1l0,0c0.9-0.7,2-1.1,3.1-1.4l0,0l0,0l0.1,0l0,0h0l0,0l0.1,0l0.1,0l0,0
	l0.1,0l0,0l0.1,0l0,0l0.1,0l0,0L94.2,6.5L94.2,6.5L94.2,6.5z M58.7,45.9c1-0.6,2-1.2,2.9-1.9l0,0l0.1,0l0,0l0.1,0l0,0l0,0l0.1,0l0,0
	l0.1,0l0,0l0,0l0,0l0,0l0.1,0l0,0l0,0c0.1-0.1,0.2-0.2,0.3-0.3l0,0l0,0l0.1-0.1l0,0l0.1-0.1l0,0l0,0c0,0,0.1-0.1,0.1-0.1l0,0
	c0,0,0.1-0.1,0.1-0.1l0,0l0,0c0,0,0.1-0.1,0.1-0.1l0,0l0,0c0,0,0.1-0.1,0.1-0.1l0,0c0,0,0.1-0.1,0.1-0.1l0,0c0,0,0.1-0.1,0.1-0.2
	l0,0c1.2-1.4,2.3-2.9,3-4.6c0.9-2,1.4-4.2,1.4-6.5l0,0v-0.1l0,0v0v0v0v0v0v0v0v0l0,0v0v0v0v0v0l0,0v0v0v0l0,0l0,0v0l0,0v0l0,0v0v0
	l0,0v0c0-0.1,0-0.2,0-0.2l0,0v0l0,0l0,0v0l0,0l0,0v0l0,0l0,0l0,0v0l0,0l0,0l0,0l0,0l0,0c0-0.2,0.1-0.4,0.1-0.5l0,0l0,0l0,0v0l0,0
	l0,0l0,0l0,0l0,0l0,0l0,0c0-0.1,0-0.1,0-0.2l0,0c0.1-0.4,0.3-0.7,0.4-1.1c0.2-0.4,0.4-0.7,0.7-1l0,0l0,0l0,0l0,0l0,0l0,0l0,0l0,0
	l0,0l0,0l0,0l0,0l0,0l0,0l0,0l0,0l0,0l0,0c0.6-0.6,1.4-1,2.2-1h0h0l0,0h0l0,0h0h0h0l0,0h0h0l0,0h0h0h0l0,0h0h0h0h0h0h0h0h0h0
	c0.1,0,0.3,0,0.4,0l0,0c0,0.1,0,0.2,0,0.3v0c0,0.1,0,0.1,0,0.2c0,0.1,0,0.2,0,0.3c-0.1,2.2-0.5,4.4-1.2,6.4c-0.8,2-1.8,3.9-3.2,5.6
	c-2,2.5-4.6,4.6-7.6,6.1l0,0C59.6,45.5,59.1,45.7,58.7,45.9L58.7,45.9z M73.6,23.2c0,0,0-0.1,0.1-0.1l0,0c0.1-0.1,0.1-0.3,0.2-0.4
	l0,0c0,0,0,0,0-0.1l0,0l0,0l0,0l0,0l0,0l0,0l0,0l0,0l0,0l0,0l0,0l0,0l0,0l0,0l0,0l0,0l0,0l0,0l0,0l0,0c0,0,0-0.1,0.1-0.1l0,0l0,0
	c0,0,0-0.1,0.1-0.1l0,0l0,0l0,0l0,0l0,0c0.7-0.8,1.7-1.4,3.1-1.3h0h0l0,0l0.1,0h0l0,0l0,0l0,0l0,0l0,0l0,0l0,0h0h0l0,0h0h0h0h0l0,0
	h0h0h0l0,0h0h0l0,0h0l0,0h0h0h0l0,0h0c0.1,0,0.1,0,0.2,0h0l0,0h0l0.1,0c0,0.4,0,0.7,0,1.1c0,0.1,0,0.1,0,0.4c0,0,0,0,0,0h0
	c0,0.1,0,0.2,0,0.3l0,0.1c0,0.1,0,0.1,0,0.2l0,0.1c0,0.1,0,0.2,0,0.3l0,0c0,0.1,0,0.2,0,0.3l0,0.1c0,0.1,0,0.1,0,0.2l0,0.1
	c0,0.1,0,0.1,0,0.2l0,0.1c0,0.1,0,0.2,0,0.3l0,0.1c0,0.1,0,0.1,0,0.2l0,0.1c0,0.1,0,0.1,0,0.2l0,0.1c0,0.1,0,0.2,0,0.3l0,0.1
	c0,0.1,0,0.1,0,0.2l0,0.1c0,0.1,0,0.1,0,0.2l0,0.1c0,0.1,0,0.2,0,0.3l0,0.1c0,0.1,0,0.1,0,0.2l0,0.1c0,0.1,0,0.1,0,0.2l0,0.1
	c0,0.1,0,0.1,0,0.2l0,0.1c0,0.1,0,0.1,0,0.2l0,0.1l0,0.1c0,0,0,0.1,0,0.1c0,0.1,0,0.1,0,0.2c0,0.1,0,0.1,0,0.2c0,0.1,0,0.1,0,0.2
	l0,0.1l0,0.1l0,0.1l0,0.1c0,0.1,0,0.1-0.1,0.2c0,0,0,0.1,0,0.1c0,0.1,0,0.1,0,0.2l0,0.1c0,0.1,0,0.1-0.1,0.2l0,0.1
	c-0.1,0.2-0.1,0.4-0.2,0.6l0,0.1c0,0.1,0,0.1-0.1,0.2l0,0.1c-0.1,0.2-0.2,0.4-0.2,0.6l0,0c0,0.1-0.1,0.1-0.1,0.2l0,0
	c-0.1,0.3-0.2,0.6-0.4,0.8l0,0c-0.7,1.4-1.5,2.8-2.4,4.1c-3,4.2-7.4,7.5-12.4,9.4l0,0c-0.2,0.1-0.5,0.2-0.7,0.2
	c0.1,0,0.2-0.1,0.3-0.1l0,0l0,0c0.1,0,0.1-0.1,0.2-0.1c2.5-1.2,4.7-2.9,6.5-4.9c0.3-0.3,0.6-0.6,0.8-1c0.5-0.6,0.9-1.2,1.4-1.8
	c0.9-1.4,1.6-2.8,2.2-4.4l0,0l0-0.1c0.8-2.1,1.2-4.3,1.2-6.7l0-0.2c0-0.1,0-0.2,0-0.3c0-0.3,0.1-0.6,0.1-0.9l0,0v0l0,0l0,0l0,0l0,0
	l0,0l0-0.1l0,0l0,0l0,0l0,0c0-0.1,0-0.1,0-0.2l0,0l0,0l0,0l0,0l0,0l0,0l0,0l0,0l0,0c0.1-0.6,0.3-1.1,0.5-1.6l0,0l0,0l0,0l0,0l0,0
	l0,0l0,0l0,0L73.6,23.2L73.6,23.2L73.6,23.2L73.6,23.2L73.6,23.2L73.6,23.2z M78.7,20.1L78.7,20.1c0-0.3,0.1-0.5,0.1-0.7
	c0-0.2,0.1-0.3,0.1-0.4l0,0l0,0l0,0v0l0,0l0,0l0,0l0,0l0,0l0,0l0,0l0,0l0,0l0,0l0,0l0,0l0,0l0,0l0,0l0,0l0,0l0-0.1l0,0v0l0,0l0,0
	l0,0l0-0.1l0,0l0,0l0,0l0,0l0,0l0,0l0,0l0,0l0,0l0,0l0,0l0,0l0,0l0,0c0.2-0.6,0.4-1.1,0.7-1.5l0,0l0,0l0,0l0,0l0,0l0,0
	c0.3-0.5,0.7-0.9,1.1-1.3l0,0l0,0l0,0l0,0l0,0l0,0l0,0h0l0,0l0,0l0,0l0,0l0,0l0,0l0,0l0,0l0,0c0.9-0.7,1.9-1.1,2.9-1.1h0l0.1,0v0
	l0.1,0l0.1,0h0h0h0h0h0h0h0l0,0h0h0h0h0h0l0,0h0h0h0h0l0,0h0h0l0,0h0h0l0,0h0l0,0h0l0,0h0h0l0,0l0,0l0,0h0l0,0l0,0h0l0,0
	c0.1,0,0.2,0,0.3,0c0.2,0,0.4,0.1,0.6,0.1c-0.1,0.3-0.1,0.6-0.1,0.9c0,0.4-0.1,0.8-0.1,1.2c0,0.9-0.1,1.8-0.2,2.8
	c-0.5,4.8-2.2,9.3-4.8,13.3c-3.2,4.9-7.8,9-13.2,11.7l0,0c-1.6,0.7-3.2,1.3-4.9,1.8c3.1-1.3,5.9-3.2,8.3-5.4c2.1-2,3.9-4.4,5.2-7
	l0,0c0.1-0.3,0.3-0.6,0.4-0.8l0,0c0.1-0.3,0.3-0.6,0.4-0.8l0-0.1c0-0.1,0.1-0.1,0.1-0.2l0-0.1c0.1-0.1,0.1-0.2,0.1-0.4l0,0
	c0-0.1,0-0.1,0.1-0.2l0-0.1c0-0.1,0-0.1,0.1-0.2l0-0.1c0-0.1,0.1-0.3,0.1-0.4v0c0-0.1,0-0.1,0.1-0.2l0-0.1l0.1-0.2l0-0.1
	c0-0.1,0-0.1,0-0.2c0-0.1,0-0.1,0.1-0.2l0-0.1l0-0.1l0-0.1l0-0.1c0,0,0-0.1,0-0.1c0-0.1,0-0.1,0.1-0.2l0-0.2c0-0.1,0-0.1,0-0.2
	l0-0.1l0-0.2l0-0.1c0-0.1,0-0.1,0-0.2l0-0.1c0-0.1,0-0.2,0.1-0.2l0-0.1c0-0.1,0-0.1,0-0.2l0-0.1c0-0.1,0-0.1,0-0.2l0-0.1
	c0-0.1,0-0.2,0-0.3l0-0.1c0-0.1,0-0.1,0-0.2l0-0.1c0-0.1,0-0.2,0-0.2l0-0.1c0-0.1,0-0.2,0-0.3l0-0.1c0-0.1,0-0.1,0-0.2l0-0.1
	c0-0.1,0-0.1,0-0.2l0-0.1c0-0.1,0-0.2,0-0.3l0,0c0-0.1,0-0.2,0-0.3l0-0.1c0-0.1,0-0.1,0-0.2l0-0.1c0-0.1,0-0.2,0-0.3l0,0
	c0-0.1,0-0.2,0-0.3l0-0.1c0-0.1,0-0.1,0-0.2l0-0.1c0-0.1,0-0.2,0-0.3c0,0,0,0,0-0.1C78.6,21.4,78.6,20.8,78.7,20.1L78.7,20.1z
	 M50,14.1c8.5,0,15.4,6.8,15.4,15.2c0,6.9-4.7,12.8-11.2,14.6c-0.2-0.1-0.3-0.1-0.5-0.2c-1.2-0.5-2.5-0.7-3.9-0.7
	c-1.3,0-2.6,0.2-3.8,0.7c-0.1,0.1-0.3,0.1-0.4,0.2c-6.4-1.9-11-7.7-11-14.5C34.6,20.9,41.5,14.1,50,14.1L50,14.1z M58.9,47
	c3.6,1.7,6.6,4.3,8.6,7.5c2,3.1,3.2,6.9,3.2,10.9c0,1.9-0.3,3.7-0.8,5.4c-0.5,1.7-1.2,3.3-2,4.7c0,2-0.4,4-1.1,5.8
	C66,83.3,65,85,63.7,86.6c-0.7,2.3-1.9,4.3-3.6,5.9c-2.5,2.5-6.1,4.1-9.9,4.1h0l0,0h0c0,0,0,0-0.1,0h0h0c-0.1,0-0.1,0-0.1,0h0h0h0
	c-3.9,0-7.4-1.6-9.9-4.1c-1.7-1.6-2.9-3.7-3.6-5.9C35,85,34,83.3,33.2,81.4c-0.7-1.8-1.1-3.8-1.1-5.8c-0.9-1.5-1.5-3.1-2-4.7
	c-0.5-1.7-0.8-3.6-0.8-5.4c0-4,1.2-7.7,3.2-10.9c2.1-3.2,5.1-5.9,8.6-7.5l0.4-0.2l0.4,0.1l0,0c1-1.5,2.4-2.6,4-3.2
	c1.2-0.5,2.5-0.7,3.8-0.7c1.3,0,2.6,0.3,3.9,0.7c1.7,0.6,3.2,1.7,4.2,3.2l0.2,0l0.4-0.1L58.9,47L58.9,47z M50,83.6l-2.4-2.4
	l-0.1,0.4c-0.1,0.2-0.1,0.4-0.2,0.7c0,0.2-0.1,0.5-0.1,0.7c0,0.9,0.3,1.7,0.8,2.4c0.5,0.7,1.2,1.2,2,1.6c0.8-0.4,1.5-0.9,2-1.6
	c0.5-0.7,0.8-1.5,0.8-2.4c0-0.2,0-0.5-0.1-0.7c0-0.2-0.1-0.5-0.2-0.7l-0.1-0.4L50,83.6L50,83.6z M47.6,81.2c1.3-1.3,3.5-1.3,4.8,0
	l0.3-0.3c0.6-0.6,1.1-1.4,1.5-2.2c0.3-0.8,0.5-1.6,0.5-2.5c0-0.7-0.1-1.4-0.3-2c-0.2-0.7-0.6-1.3-1-1.9L53,72l-3,3l-3-3l-0.3,0.4
	c-0.4,0.6-0.7,1.2-1,1.9c-0.2,0.6-0.3,1.3-0.3,2c0,0.9,0.2,1.7,0.5,2.5c0.3,0.8,0.8,1.5,1.5,2.2L47.6,81.2L47.6,81.2z M47,72
	c1.7-1.6,4.4-1.6,6.1,0l0.4-0.4c0.7-0.8,1.3-1.7,1.7-2.6c0.4-0.9,0.6-1.9,0.6-3c0-0.8-0.1-1.6-0.4-2.4c-0.2-0.8-0.6-1.5-1.1-2.2
	L54,60.9l0.4-0.4c1.2-1.1,2.2-2.5,2.8-3.9c0.6-1.4,1-2.9,1-4.6c0-3.7-2.2-6.1-4.9-7.2c-1.1-0.4-2.2-0.6-3.4-0.6
	c-1.2,0-2.3,0.2-3.4,0.6c-2.6,1-4.7,3.4-4.7,7.2c0,1.6,0.3,3.1,1,4.6c0.7,1.5,1.6,2.8,2.8,3.9l0.4,0.4l-0.3,0.5
	c-0.5,0.7-0.8,1.4-1.1,2.2c-0.2,0.7-0.4,1.5-0.4,2.4c0,1.1,0.2,2.1,0.6,3c0.4,1,1,1.9,1.7,2.6L47,72L47,72z M50,64.8l-4-3.9
	c2.2-2.2,5.7-2.2,7.9,0L50,64.8L50,64.8z M40.7,50.1c-2.4,1.4-4.4,3.4-5.9,5.7c-1.8,2.7-2.8,6-2.8,9.5c0,1.7,0.2,3.2,0.6,4.8
	c0,0.1,0.1,0.3,0.1,0.4c0.8-3,2.4-5.7,4.6-7.8c1.5-1.5,3.3-2.7,5.3-3.6c-0.4-0.6-0.8-1.3-1.1-1.9c-0.7-1.6-1.1-3.3-1.1-5.1
	C40.5,51.4,40.6,50.7,40.7,50.1L40.7,50.1z M44.3,61.2c-1.9,0.8-3.6,1.9-5.1,3.3c-2.8,2.7-4.5,6.5-4.5,10.6c0,1.9,0.3,3.7,1,5.3
	c0.1,0.1,0.1,0.3,0.2,0.4c0.4-3.2,1.9-6.1,4.1-8.2c1.1-1.1,2.5-2.1,3.9-2.7c-0.1-0.2-0.2-0.3-0.2-0.5c-0.4-1.1-0.7-2.3-0.7-3.5
	c0-1,0.1-1.9,0.4-2.7C43.6,62.5,43.9,61.8,44.3,61.2L44.3,61.2z M45.2,72.2c-1.3,0.6-2.4,1.4-3.4,2.3c-2.1,2.1-3.4,4.9-3.4,8.1
	c0,0.1,0,0.2,0,0.3l0,0l0,0c0,0.1,0,0.2,0,0.2l0,0c0.1,2.3,0.9,4.4,2.2,6.1c-0.2-0.6-0.2-1.3-0.3-2l0-0.1c0-0.1,0-0.1,0-0.2
	c0-2.6,1.1-5,2.8-6.7c0.4-0.4,0.9-0.8,1.4-1.2c-0.4-0.9-0.6-1.9-0.6-3c0-0.8,0.1-1.7,0.4-2.4C44.6,73.3,44.9,72.7,45.2,72.2
	L45.2,72.2z M46,81.5c-0.3,0.2-0.7,0.5-1,0.8c-1.3,1.2-2,3-2,4.9c0,0.1,0,0.3,0,0.4v0c0.1,1.7,0.9,3.3,2,4.4c1.3,1.2,3,2,4.9,2
	s3.7-0.8,4.9-2c1.2-1.1,1.9-2.7,2-4.4v0c0-0.1,0-0.3,0-0.4c0-1.9-0.8-3.6-2-4.9c-0.3-0.3-0.6-0.6-1-0.8c0,0-0.1,0.1-0.1,0.1
	c0,0.2,0.1,0.3,0.1,0.5c0.1,0.3,0.1,0.6,0.1,0.9c0,1.2-0.4,2.3-1.1,3.2c-0.7,0.9-1.7,1.7-2.8,2.1L50,88.3l-0.2-0.1
	c-1.1-0.4-2.1-1.2-2.8-2.1c-0.7-0.9-1.1-2-1.1-3.2c0-0.3,0-0.6,0.1-0.9C46,81.9,46.1,81.7,46,81.5C46.1,81.5,46,81.5,46,81.5
	L46,81.5z M55.4,79.2c0.5,0.3,1,0.7,1.4,1.2c1.7,1.7,2.8,4.1,2.8,6.7c0,0.1,0,0.1,0,0.2l0,0.1c0,0.7-0.1,1.3-0.3,2
	c1.3-1.7,2.1-3.9,2.2-6.1v0c0-0.1,0-0.2,0-0.2l0,0l0,0c0-0.1,0-0.2,0-0.3c0-3.1-1.3-6-3.4-8.1c-1-1-2.1-1.8-3.4-2.3
	c0.3,0.5,0.6,1.1,0.8,1.7c0.3,0.8,0.4,1.6,0.4,2.4C56,77.3,55.8,78.3,55.4,79.2L55.4,79.2z M56.1,69.9c1.5,0.7,2.8,1.6,3.9,2.7
	c2.2,2.2,3.7,5,4.1,8.2c0.1-0.1,0.1-0.3,0.2-0.4c0.6-1.6,1-3.4,1-5.3c0-4.2-1.7-7.9-4.5-10.6c-1.4-1.4-3.2-2.5-5.1-3.3
	c0.4,0.6,0.7,1.3,0.9,2C56.9,64,57,65,57,65.9c0,1.2-0.2,2.4-0.7,3.5C56.3,69.6,56.2,69.8,56.1,69.9L56.1,69.9z M57.3,59.1
	c2,0.9,3.8,2.1,5.3,3.6c2.2,2.1,3.8,4.8,4.6,7.8c0-0.1,0.1-0.3,0.1-0.4c0.4-1.5,0.7-3.1,0.7-4.8c0-3.5-1-6.7-2.8-9.5
	c-1.5-2.3-3.5-4.3-6-5.7c0.1,0.6,0.2,1.2,0.2,1.9c0,1.8-0.4,3.5-1.1,5.1C58.1,57.8,57.8,58.4,57.3,59.1L57.3,59.1z"/>
</svg>
